<?xml version="1.0" standalone="no"?>
<!DOCTYPE svg PUBLIC "-//W3C//DTD SVG 20010904//EN"
 "http://www.w3.org/TR/2001/REC-SVG-20010904/DTD/svg10.dtd">
<svg version="1.0" xmlns="http://www.w3.org/2000/svg"
 width="512.000000pt" height="512.000000pt" viewBox="0 0 512.000000 512.000000"
 preserveAspectRatio="xMidYMid meet">

<g transform="translate(0.000000,512.000000) scale(0.100000,-0.100000)"
fill="white" stroke="none">
<path d="M3003 5101 c-23 -11 -49 -31 -58 -45 -18 -27 -472 -1429 -481 -1486
-3 -20 1 -53 9 -78 15 -42 15 -43 -12 -57 -40 -20 -107 -97 -122 -139 -11 -31
-17 -36 -34 -31 -79 25 -102 21 -865 -160 -410 -97 -755 -183 -768 -191 -103
-67 -69 -232 54 -258 32 -7 1502 195 1559 215 16 5 49 28 72 51 35 35 43 39
43 23 1 -43 -151 -2762 -156 -2792 l-5 -33 -109 0 c-101 0 -110 -2 -124 -22
-21 -30 -20 -54 4 -78 19 -19 33 -20 548 -20 407 0 532 3 544 13 23 18 29 49
15 77 -12 24 -17 25 -127 30 l-115 5 -71 1310 c-40 721 -74 1348 -77 1393 l-5
84 32 -30 c17 -16 309 -222 649 -457 566 -392 623 -428 665 -432 87 -8 151 52
151 142 1 22 -7 52 -17 66 -20 31 -1172 993 -1216 1016 -18 9 -56 17 -89 17
l-57 1 -11 40 c-6 22 -17 51 -26 64 -14 22 -13 25 15 55 16 17 34 40 40 52 17
32 342 1498 342 1541 0 50 -32 101 -75 119 -45 19 -71 17 -122 -5z m77 -130
c0 -11 -72 -343 -161 -738 -154 -690 -161 -719 -190 -745 -38 -36 -81 -37
-114 -3 -14 13 -25 36 -25 50 0 18 373 1199 455 1443 7 20 35 14 35 -7z m-415
-1667 c124 -94 -7 -290 -146 -219 -82 43 -93 186 -17 226 65 35 111 33 163 -7z
m-395 -174 c49 -49 29 -131 -37 -150 -31 -8 -1378 -195 -1463 -203 -16 -1 -25
4 -28 15 -3 13 30 24 190 62 106 26 427 102 713 171 286 68 539 124 563 124
29 1 48 -5 62 -19z m1242 -503 c321 -266 583 -489 583 -497 0 -8 -7 -16 -15
-17 -25 -4 -1243 847 -1258 880 -24 50 18 117 73 117 30 0 102 -57 617 -483z
m-918 251 c5 -30 157 -2699 156 -2740 0 -17 -16 -18 -190 -18 l-190 0 0 36 c0
44 136 2541 146 2667 l6 87 34 0 c30 0 34 -3 38 -32z"/>
<path d="M2240 5099 c-484 -62 -944 -331 -1239 -722 -80 -108 -90 -144 -46
-173 38 -25 63 -9 131 82 333 443 852 704 1399 704 127 0 148 9 148 60 0 54
-18 60 -182 59 -80 -1 -175 -5 -211 -10z"/>
<path d="M3483 4929 c-12 -4 -29 -19 -38 -33 -24 -36 -8 -58 78 -107 139 -80
290 -199 408 -321 70 -72 95 -82 137 -52 39 27 28 62 -46 140 -114 120 -241
221 -399 317 -106 64 -112 67 -140 56z"/>
<path d="M2415 4789 c-308 -30 -623 -165 -870 -373 -86 -73 -222 -221 -282
-307 -68 -100 -144 -244 -188 -358 -53 -141 -105 -384 -91 -429 9 -28 50 -44
80 -30 31 13 32 17 50 131 52 318 189 581 425 817 256 254 567 399 926 430 84
7 102 12 117 30 24 30 23 46 -7 75 -26 27 -30 27 -160 14z"/>
<path d="M3372 4593 c-23 -9 -32 -39 -21 -71 7 -20 32 -44 77 -75 182 -121
361 -328 468 -540 41 -80 69 -99 109 -73 37 24 33 67 -16 156 -111 203 -259
380 -430 510 -122 94 -150 108 -187 93z"/>
<path d="M4166 4228 c-9 -12 -16 -28 -16 -34 0 -6 27 -67 60 -135 67 -140 110
-264 142 -412 19 -88 22 -132 22 -322 0 -191 -3 -234 -22 -325 -30 -136 -78
-280 -137 -407 -52 -111 -54 -141 -10 -161 49 -23 72 -2 129 121 132 279 184
534 173 840 -6 180 -32 322 -89 492 -43 128 -138 332 -165 353 -27 20 -70 15
-87 -10z"/>
<path d="M788 4010 c-9 -6 -30 -45 -46 -88 -59 -152 -107 -379 -127 -599 -6
-69 -5 -74 20 -98 18 -19 31 -24 48 -20 40 13 48 30 58 131 19 196 63 403 114
537 14 37 25 75 25 85 0 42 -56 73 -92 52z"/>
<path d="M4025 3650 c-18 -19 -18 -24 1 -128 14 -78 19 -150 18 -267 -1 -185
-22 -303 -80 -463 -49 -132 -51 -145 -23 -171 47 -43 81 -19 122 87 81 209
112 393 104 617 -8 191 -27 302 -58 328 -28 23 -62 22 -84 -3z"/>
<path d="M3419 2090 c-30 -21 -64 -46 -76 -55 -51 -36 -32 -105 29 -105 32 0
171 88 182 115 17 46 -7 85 -53 85 -16 0 -50 -16 -82 -40z"/>
<path d="M3729 1912 c-93 -81 -230 -170 -378 -247 -170 -88 -202 -116 -185
-162 19 -55 49 -52 185 14 68 33 156 80 194 105 75 48 272 200 293 226 20 25
15 69 -10 86 -33 24 -51 20 -99 -22z"/>
</g>
</svg>
