<?xml version="1.0" standalone="no"?>
<!DOCTYPE svg PUBLIC "-//W3C//DTD SVG 20010904//EN"
 "http://www.w3.org/TR/2001/REC-SVG-20010904/DTD/svg10.dtd">
<svg version="1.0" xmlns="http://www.w3.org/2000/svg"
 width="512.000000pt" height="512.000000pt" viewBox="0 0 512.000000 512.000000"
 preserveAspectRatio="xMidYMid meet">
<metadata>
Created by potrace 1.14, written by Peter Selinger 2001-2017
</metadata>
<g transform="translate(0.000000,512.000000) scale(0.100000,-0.100000)"
fill="#000000" stroke="none">
<path d="M2370 5112 c-90 -5 -267 -34 -359 -58 -422 -112 -766 -349 -1039
-715 -51 -67 -56 -110 -17 -135 38 -25 63 -9 136 88 151 197 347 368 559 485
152 85 397 169 545 189 28 3 70 9 95 13 25 4 101 8 170 10 69 1 133 4 143 7
37 11 41 86 6 105 -19 10 -155 16 -239 11z"/>
<path d="M2998 5099 c-62 -32 -50 -5 -203 -484 -43 -132 -88 -271 -100 -310
-13 -38 -62 -191 -110 -340 -47 -148 -94 -292 -103 -320 -18 -57 -20 -141 -4
-172 11 -19 7 -24 -31 -46 -46 -27 -102 -97 -113 -141 -6 -24 -10 -27 -33 -20
-81 22 -98 20 -257 -18 -87 -21 -168 -40 -179 -42 -11 -2 -115 -27 -232 -55
-117 -28 -222 -53 -235 -55 -13 -3 -68 -16 -123 -29 -55 -14 -170 -41 -255
-61 -324 -76 -340 -81 -372 -113 -59 -59 -47 -164 24 -215 26 -18 46 -22 93
-22 49 0 207 19 325 39 24 4 342 49 425 61 56 7 83 11 135 20 25 4 56 8 70 9
14 2 43 6 65 9 44 6 61 9 180 25 44 6 91 13 105 16 14 2 63 9 110 15 105 14
139 28 185 77 l37 38 -7 -130 c-3 -71 -8 -159 -10 -195 -2 -36 -7 -112 -10
-170 -3 -58 -8 -139 -10 -180 -7 -127 -15 -261 -20 -355 -3 -49 -7 -133 -10
-185 -8 -134 -13 -217 -20 -355 -4 -66 -8 -145 -10 -175 -2 -30 -7 -109 -10
-175 -4 -66 -8 -149 -10 -183 -2 -35 -7 -119 -10 -185 -4 -67 -8 -140 -10
-162 -4 -43 -18 -312 -18 -358 -1 -34 -11 -36 -131 -35 -82 1 -91 -1 -108 -22
-22 -27 -17 -67 9 -88 24 -18 1061 -18 1086 1 26 18 30 61 9 87 -16 20 -27 22
-127 24 -110 1 -110 1 -111 26 -1 14 -5 83 -8 155 -4 72 -9 162 -11 200 -6
102 -16 279 -20 365 -10 180 -16 290 -20 355 -6 100 -17 299 -20 370 -5 105
-15 297 -20 380 -3 44 -7 118 -10 165 -3 47 -7 130 -10 185 -3 55 -7 132 -10
170 -2 39 -6 124 -10 190 -4 66 -8 144 -11 174 l-4 55 29 -28 c16 -15 63 -51
104 -79 41 -29 292 -203 557 -387 680 -472 615 -432 676 -427 81 6 134 61 134
141 0 47 -28 88 -100 147 -36 30 -67 56 -70 59 -3 3 -57 48 -120 100 -63 52
-117 97 -120 100 -3 3 -162 136 -354 295 -192 160 -365 305 -385 322 -58 53
-124 81 -181 80 l-50 -2 -15 51 c-8 28 -21 57 -29 63 -11 9 -7 18 24 49 34 34
52 73 66 145 2 10 5 26 8 35 3 9 7 28 10 42 2 14 23 108 46 210 23 102 43 194
46 205 2 11 24 110 49 220 38 168 57 252 80 355 2 8 19 87 39 175 46 209 46
204 29 245 -14 35 -56 79 -77 81 -59 8 -86 5 -118 -12z m35 -352 c-29 -127
-56 -248 -59 -267 -3 -19 -8 -38 -10 -41 -2 -3 -6 -21 -9 -40 -3 -19 -10 -50
-15 -69 -5 -19 -11 -46 -14 -60 -3 -14 -7 -34 -9 -45 -3 -11 -26 -112 -51
-225 -116 -523 -113 -511 -153 -529 -40 -18 -72 -13 -99 17 -35 37 -33 47 66
352 45 140 104 323 130 405 27 83 85 265 130 405 45 140 88 273 97 295 16 42
34 60 43 44 4 -5 -18 -114 -47 -242z m-381 -1434 c82 -48 83 -166 3 -219 -89
-58 -205 4 -205 111 0 65 32 106 99 125 37 11 64 6 103 -17z m-384 -183 c29
-27 37 -64 22 -101 -21 -50 6 -43 -435 -105 -99 -14 -196 -27 -215 -29 -19 -2
-48 -6 -65 -9 -16 -2 -52 -7 -80 -11 -27 -3 -61 -8 -75 -10 -14 -2 -61 -9
-105 -15 -44 -6 -91 -12 -105 -14 -14 -3 -65 -10 -115 -16 -87 -11 -132 -17
-185 -25 -142 -22 -164 -23 -168 -4 -2 14 26 23 150 54 84 20 164 39 178 42
14 2 88 19 165 38 220 54 644 154 668 159 12 2 51 12 87 21 36 9 74 19 85 21
11 3 36 8 55 13 64 16 115 13 138 -9z m685 -42 c31 -22 67 -51 91 -73 6 -6
142 -118 301 -250 160 -131 306 -253 326 -269 19 -17 57 -49 84 -71 53 -43
219 -181 297 -247 29 -24 45 -45 41 -54 -8 -23 -23 -17 -125 54 -53 37 -323
224 -600 416 -276 192 -511 356 -522 365 -28 24 -37 57 -25 88 25 66 75 81
132 41z m-358 -213 c1 -16 5 -88 9 -160 3 -71 8 -159 11 -195 6 -84 14 -218
20 -350 4 -58 8 -134 10 -170 8 -137 16 -268 20 -350 3 -47 7 -125 10 -175 3
-49 8 -130 10 -180 3 -49 7 -124 10 -165 5 -83 14 -239 20 -340 10 -188 17
-311 20 -360 3 -30 7 -112 10 -181 l7 -126 -189 1 -188 1 1 90 c1 77 5 176 19
430 2 28 6 106 9 175 4 69 9 154 11 190 2 36 7 115 10 175 3 61 8 139 10 175
2 36 7 117 10 180 3 63 8 153 10 200 3 47 8 123 10 170 3 47 7 128 10 180 3
52 7 138 10 190 3 52 7 127 10 165 2 39 7 129 11 200 4 72 8 150 9 175 2 25 4
55 4 68 1 21 5 23 38 20 33 -3 37 -6 38 -33z"/>
<path d="M3460 4911 c-21 -20 -28 -35 -23 -48 8 -23 33 -53 45 -53 16 0 141
-83 241 -159 54 -41 139 -114 189 -164 86 -85 92 -89 126 -84 39 7 52 20 52
57 0 61 -261 290 -480 422 -106 64 -114 65 -150 29z"/>
<path d="M2468 4795 c-2 -1 -34 -5 -73 -9 -330 -29 -692 -205 -950 -462 -232
-232 -398 -550 -449 -861 -22 -133 -20 -154 18 -171 31 -14 59 -6 75 20 14 23
16 30 26 108 16 132 89 347 162 480 152 275 406 511 691 641 147 67 349 118
532 133 65 6 100 27 100 61 0 31 -36 58 -83 60 -25 1 -48 1 -49 0z"/>
<path d="M3361 4581 c-14 -14 -17 -27 -12 -49 5 -24 28 -47 106 -105 183 -136
322 -298 426 -494 54 -102 84 -125 125 -99 36 24 31 67 -17 156 -114 209 -262
384 -439 518 -125 95 -155 107 -189 73z"/>
<path d="M4172 4238 c-26 -34 -22 -56 37 -179 91 -188 145 -376 166 -574 8
-69 8 -274 0 -325 -2 -19 -7 -55 -10 -80 -15 -128 -79 -335 -155 -496 -22 -47
-40 -94 -40 -104 0 -29 38 -59 68 -54 38 7 39 8 86 102 72 144 139 348 161
492 4 25 10 54 12 65 14 52 12 404 -2 490 -33 199 -88 372 -175 547 -55 111
-70 128 -111 128 -14 0 -31 -6 -37 -12z"/>
<path d="M788 4007 c-26 -20 -88 -181 -104 -267 -3 -14 -9 -38 -14 -55 -5 -16
-12 -48 -15 -70 -3 -22 -10 -62 -15 -90 -12 -62 -17 -110 -25 -201 -5 -59 -3
-74 12 -91 48 -56 100 -29 108 57 20 211 63 421 115 569 17 46 30 91 30 100 0
42 -60 73 -92 48z"/>
<path d="M4025 3650 c-13 -15 -16 -29 -12 -65 3 -25 8 -49 10 -53 20 -31 29
-341 14 -451 -17 -122 -71 -313 -109 -384 -13 -25 0 -75 23 -87 54 -30 94 25
149 205 55 179 63 235 64 445 1 235 -18 368 -57 395 -29 21 -60 19 -82 -5z"/>
<path d="M3419 2091 c-85 -62 -98 -74 -104 -102 -8 -34 16 -59 56 -59 29 0
128 59 170 101 23 23 25 62 3 83 -26 26 -67 19 -125 -23z"/>
<path d="M3749 1929 c-106 -95 -274 -203 -450 -290 -114 -56 -146 -88 -135
-134 9 -36 39 -49 84 -34 97 31 338 168 427 242 11 9 52 42 90 73 97 79 112
114 62 149 -29 21 -50 19 -78 -6z"/>
</g>
</svg>
